<?xml version="1.0" standalone="no"?>
<!DOCTYPE svg PUBLIC "-//W3C//DTD SVG 20010904//EN"
 "http://www.w3.org/TR/2001/REC-SVG-20010904/DTD/svg10.dtd">
<svg version="1.0" xmlns="http://www.w3.org/2000/svg"
 width="256.000000pt" height="256.000000pt" viewBox="0 0 256.000000 256.000000"
 preserveAspectRatio="xMidYMid meet">

<g transform="translate(0.000000,256.000000) scale(0.100000,-0.100000)"
fill="#000000" stroke="none">
<path d="M1225 2471 c-132 -34 -210 -168 -171 -294 13 -44 13 -49 -2 -54 -235
-80 -400 -225 -496 -435 -64 -139 -68 -172 -73 -505 l-5 -302 -36 -7 c-119
-22 -196 -113 -196 -234 0 -96 43 -167 129 -213 38 -21 56 -22 312 -25 l271
-3 7 -42 c12 -70 44 -131 93 -180 67 -66 129 -91 222 -91 93 0 155 25 222 91
49 49 81 110 93 180 l7 42 271 3 c256 3 274 4 312 25 86 46 129 117 129 213 0
121 -77 212 -196 234 l-38 7 0 250 0 251 -29 29 c-37 37 -65 37 -102 0 l-29
-29 0 -302 0 -302 29 -29 c27 -26 36 -29 96 -29 57 0 69 -3 90 -25 33 -32 33
-78 0 -110 l-24 -25 -831 0 -831 0 -24 25 c-33 32 -33 78 0 110 21 22 33 25
90 25 60 0 69 3 96 29 l29 29 0 334 c0 374 5 410 68 538 27 55 58 96 117 156
126 127 237 178 421 194 112 10 160 28 205 77 46 49 63 93 63 163 0 95 -44
169 -125 210 -42 22 -121 32 -164 21z m110 -176 c50 -49 15 -135 -55 -135 -19
0 -40 9 -55 25 -16 15 -25 36 -25 55 0 19 9 40 25 55 15 16 36 25 55 25 19 0
40 -9 55 -25z m105 -1919 c0 -63 -86 -136 -160 -136 -74 0 -160 73 -160 136
l0 24 160 0 160 0 0 -24z"/>
<path d="M1949 2131 c-35 -36 -37 -61 -5 -98 19 -22 35 -29 79 -33 l56 -5 -61
-80 c-111 -147 -115 -159 -69 -206 l29 -29 142 0 142 0 29 29 c35 36 37 61 5
98 -19 22 -35 29 -79 33 l-56 5 61 80 c111 147 115 159 69 206 l-29 29 -142 0
-142 0 -29 -29z"/>
<path d="M1309 1811 c-35 -36 -37 -61 -5 -98 22 -26 31 -28 116 -33 l92 -5
-104 -130 c-145 -181 -148 -187 -99 -236 l29 -29 182 0 182 0 29 29 c35 36 37
61 5 98 -22 26 -31 28 -116 33 l-92 5 104 130 c145 181 148 187 99 236 l-29
29 -182 0 -182 0 -29 -29z"/>
</g>
</svg>
