<?xml version="1.0" standalone="no"?>
<!DOCTYPE svg PUBLIC "-//W3C//DTD SVG 20010904//EN"
 "http://www.w3.org/TR/2001/REC-SVG-20010904/DTD/svg10.dtd">
<svg version="1.0" xmlns="http://www.w3.org/2000/svg"
 width="256.000000pt" height="256.000000pt" viewBox="0 0 256.000000 256.000000"
 preserveAspectRatio="xMidYMid meet">

<g transform="translate(0.000000,256.000000) scale(0.100000,-0.100000)"
fill="#000000" stroke="none">
<path d="M1225 2471 c-131 -32 -210 -168 -171 -294 13 -44 13 -49 -2 -54 -131
-45 -219 -95 -308 -177 -112 -101 -183 -218 -230 -373 -26 -83 -27 -102 -32
-351 l-4 -262 -38 -6 c-90 -15 -169 -92 -190 -187 -23 -101 29 -209 124 -260
l41 -22 865 0 865 0 40 22 c86 46 129 117 129 213 0 114 -63 196 -173 226
l-59 17 -4 261 c-3 143 -8 269 -12 279 -6 13 -20 17 -65 17 -41 0 -71 7 -110
26 -28 15 -54 24 -57 21 -3 -3 10 -26 29 -51 46 -59 60 -105 55 -176 -6 -77
-46 -144 -112 -185 l-49 -30 -237 0 -237 0 -49 30 c-66 41 -106 108 -112 185
-5 70 9 117 54 175 l34 45 -34 45 c-45 58 -59 105 -54 175 6 77 46 144 112
185 l49 30 239 0 c227 0 237 1 215 17 -33 26 -147 84 -192 98 -22 7 -43 14
-47 16 -3 2 0 25 9 51 37 122 -35 251 -159 288 -55 16 -76 17 -123 6z m110
-176 c50 -49 15 -135 -55 -135 -19 0 -40 9 -55 25 -16 15 -25 36 -25 55 0 19
9 40 25 55 15 16 36 25 55 25 19 0 40 -9 55 -25z"/>
<path d="M1949 2131 c-35 -36 -37 -61 -5 -98 19 -22 35 -29 79 -33 l56 -5 -61
-80 c-111 -147 -115 -159 -69 -206 l29 -29 142 0 142 0 29 29 c35 36 37 61 5
98 -19 22 -35 29 -79 33 l-56 5 61 80 c111 147 115 159 69 206 l-29 29 -142 0
-142 0 -29 -29z"/>
<path d="M1309 1811 c-35 -36 -37 -61 -5 -98 22 -26 31 -28 116 -33 l92 -5
-104 -130 c-145 -181 -148 -187 -99 -236 l29 -29 182 0 182 0 29 29 c35 36 37
61 5 98 -22 26 -31 28 -116 33 l-92 5 104 130 c145 181 148 187 99 236 l-29
29 -182 0 -182 0 -29 -29z"/>
<path d="M980 302 c0 -10 13 -38 29 -63 68 -106 152 -153 271 -153 119 0 203
47 271 153 55 85 69 81 -271 81 -282 0 -300 -1 -300 -18z"/>
</g>
</svg>
